STARTFONT 2.1
FONT -DEC-Terminal-Bold-R-Wide--14-100-100-100-C-120-DEC-DECtech
SIZE 10 100 100
FONTBOUNDINGBOX 14 14 -1 -3

STARTPROPERTIES 25
CHARSET_REGISTRY "DEC"
CHARSET_ENCODING "DECtech"
CAP_HEIGHT 9
X_HEIGHT 7
AVERAGE_WIDTH 120
FONTNAME_REGISTRY " "
FAMILY_NAME " Terminal"
FOUNDRY "DEC"
WEIGHT_NAME "Bold"
SETWIDTH_NAME "Wide"
SLANT "R"
ADD_STYLE_NAME ""
PIXEL_SIZE 14
POINT_SIZE 100
RESOLUTION_X 100
RESOLUTION_Y 100
SPACING "C"
CHARSET_COLLECTIONS "DEC-DECtech"
FULL_NAME "Terminal Bold Wide"
COPYRIGHT "Copyright (c) 1990 Digital Equipment Corp. All rights reserved."
WEIGHT 10
QUAD_WIDTH 12
DEFAULT_CHAR 159
FONT_DESCENT 2
FONT_ASCENT 11
ENDPROPERTIES

CHARS 181

STARTCHAR space
ENCODING 32
SWIDTH 860 0
DWIDTH 12 0
BBX 1 1 0 0
BITMAP
00
ENDCHAR

STARTCHAR exclam
ENCODING 33
SWIDTH 860 0
DWIDTH 12 0
BBX 4 9 4 0
BITMAP
F0
F0
F0
F0
F0
F0
00
F0
F0
ENDCHAR

STARTCHAR quotedbl
ENCODING 34
SWIDTH 860 0
DWIDTH 12 0
BBX 10 3 1 7
BITMAP
F3C0
F3C0
F3C0
ENDCHAR

STARTCHAR numbersign
ENCODING 35
SWIDTH 860 0
DWIDTH 12 0
BBX 10 8 1 1
BITMAP
3300
FFC0
FFC0
3300
3300
FFC0
FFC0
3300
ENDCHAR

STARTCHAR dollar
ENCODING 36
SWIDTH 860 0
DWIDTH 12 0
BBX 10 11 1 -1
BITMAP
0C00
0C00
7F80
F3C0
F000
7F80
03C0
F3C0
7F80
0C00
0C00
ENDCHAR

STARTCHAR percent
ENCODING 37
SWIDTH 860 0
DWIDTH 12 0
BBX 11 9 1 0
BITMAP
78E0
DDC0
7B80
0700
0E00
1C00
3BC0
76E0
E3C0
ENDCHAR

STARTCHAR ampersand
ENCODING 38
SWIDTH 860 0
DWIDTH 12 0
BBX 10 9 1 0
BITMAP
3E00
7700
7700
3E00
7EC0
EF80
E700
FF80
7DC0
ENDCHAR

STARTCHAR quoteright
ENCODING 39
SWIDTH 860 0
DWIDTH 12 0
BBX 5 4 4 6
BITMAP
78
78
38
F0
ENDCHAR

STARTCHAR parenleft
ENCODING 40
SWIDTH 860 0
DWIDTH 12 0
BBX 8 11 2 -1
BITMAP
1F
3C
78
F0
F0
F0
F0
F0
78
3C
1F
ENDCHAR

STARTCHAR parenright
ENCODING 41
SWIDTH 860 0
DWIDTH 12 0
BBX 8 11 2 -1
BITMAP
F8
3C
1E
0F
0F
0F
0F
0F
1E
3C
F8
ENDCHAR

STARTCHAR asterisk
ENCODING 42
SWIDTH 860 0
DWIDTH 12 0
BBX 10 7 1 2
BITMAP
0C00
CCC0
3F00
3F00
3F00
CCC0
0C00
ENDCHAR

STARTCHAR plus
ENCODING 43
SWIDTH 860 0
DWIDTH 12 0
BBX 10 6 1 1
BITMAP
1E00
1E00
FFC0
FFC0
1E00
1E00
ENDCHAR

STARTCHAR comma
ENCODING 44
SWIDTH 860 0
DWIDTH 12 0
BBX 4 4 4 -2
BITMAP
F0
F0
70
E0
ENDCHAR

STARTCHAR minus
ENCODING 45
SWIDTH 860 0
DWIDTH 12 0
BBX 10 2 1 3
BITMAP
FFC0
FFC0
ENDCHAR

STARTCHAR period
ENCODING 46
SWIDTH 860 0
DWIDTH 12 0
BBX 4 2 4 0
BITMAP
F0
F0
ENDCHAR

STARTCHAR slash
ENCODING 47
SWIDTH 860 0
DWIDTH 12 0
BBX 10 11 1 -1
BITMAP
03C0
03C0
0780
0780
0F00
1E00
3C00
3800
7800
F000
F000
ENDCHAR

STARTCHAR zero
ENCODING 48
SWIDTH 860 0
DWIDTH 12 0
BBX 10 9 1 0
BITMAP
1E00
7F80
F3C0
F3C0
F3C0
F3C0
F3C0
7F80
1E00
ENDCHAR

STARTCHAR one
ENCODING 49
SWIDTH 860 0
DWIDTH 12 0
BBX 10 9 1 0
BITMAP
0E00
1E00
7E00
1E00
1E00
1E00
1E00
1E00
FFC0
ENDCHAR

STARTCHAR two
ENCODING 50
SWIDTH 860 0
DWIDTH 12 0
BBX 10 9 1 0
BITMAP
7F80
F3C0
F3C0
03C0
0FC0
3F80
FE00
F800
FFC0
ENDCHAR

STARTCHAR three
ENCODING 51
SWIDTH 860 0
DWIDTH 12 0
BBX 10 9 1 0
BITMAP
7F80
F3C0
F3C0
03C0
0F80
03C0
F3C0
F3C0
7F80
ENDCHAR

STARTCHAR four
ENCODING 52
SWIDTH 860 0
DWIDTH 12 0
BBX 10 9 1 0
BITMAP
0700
0F00
1F00
3F00
6F00
CF00
FFC0
0F00
0F00
ENDCHAR

STARTCHAR five
ENCODING 53
SWIDTH 860 0
DWIDTH 12 0
BBX 10 9 1 0
BITMAP
FFC0
F000
F000
FF80
F3C0
03C0
F3C0
F3C0
7F80
ENDCHAR

STARTCHAR six
ENCODING 54
SWIDTH 860 0
DWIDTH 12 0
BBX 10 9 1 0
BITMAP
7F80
F3C0
F000
FF80
F3C0
F3C0
F3C0
F3C0
7F80
ENDCHAR

STARTCHAR seven
ENCODING 55
SWIDTH 860 0
DWIDTH 12 0
BBX 10 9 1 0
BITMAP
FFC0
03C0
03C0
0780
0F00
1E00
3C00
3C00
3C00
ENDCHAR

STARTCHAR eight
ENCODING 56
SWIDTH 860 0
DWIDTH 12 0
BBX 10 9 1 0
BITMAP
7F80
F3C0
F3C0
F3C0
7F80
F3C0
F3C0
F3C0
7F80
ENDCHAR

STARTCHAR nine
ENCODING 57
SWIDTH 860 0
DWIDTH 12 0
BBX 10 9 1 0
BITMAP
7F80
F3C0
F3C0
F3C0
F3C0
7FC0
03C0
F3C0
7F80
ENDCHAR

STARTCHAR colon
ENCODING 58
SWIDTH 860 0
DWIDTH 12 0
BBX 4 7 4 0
BITMAP
F0
F0
00
00
00
F0
F0
ENDCHAR

STARTCHAR semicolon
ENCODING 59
SWIDTH 860 0
DWIDTH 12 0
BBX 6 8 2 -1
BITMAP
3C
3C
00
00
00
3C
3C
F8
ENDCHAR

STARTCHAR less
ENCODING 60
SWIDTH 860 0
DWIDTH 12 0
BBX 8 9 2 0
BITMAP
0F
1E
3C
78
F0
78
3C
1E
0F
ENDCHAR

STARTCHAR equal
ENCODING 61
SWIDTH 860 0
DWIDTH 12 0
BBX 8 5 2 2
BITMAP
FF
FF
00
FF
FF
ENDCHAR

STARTCHAR greater
ENCODING 62
SWIDTH 860 0
DWIDTH 12 0
BBX 8 9 2 0
BITMAP
F0
78
3C
1E
0F
1E
3C
78
F0
ENDCHAR

STARTCHAR question
ENCODING 63
SWIDTH 860 0
DWIDTH 12 0
BBX 10 9 1 0
BITMAP
7F80
F3C0
F3C0
0780
1F00
3C00
0000
3C00
3C00
ENDCHAR

STARTCHAR at
ENCODING 64
SWIDTH 860 0
DWIDTH 12 0
BBX 10 9 1 0
BITMAP
7F80
F0C0
F0C0
F3C0
F6C0
F7C0
F380
F000
7FC0
ENDCHAR

STARTCHAR A
ENCODING 65
SWIDTH 860 0
DWIDTH 12 0
BBX 10 9 1 0
BITMAP
1E00
7F80
F3C0
F3C0
F3C0
FFC0
F3C0
F3C0
F3C0
ENDCHAR

STARTCHAR B
ENCODING 66
SWIDTH 860 0
DWIDTH 12 0
BBX 10 9 1 0
BITMAP
FF80
F3C0
F3C0
F3C0
FF80
F3C0
F3C0
F3C0
FF80
ENDCHAR

STARTCHAR C
ENCODING 67
SWIDTH 860 0
DWIDTH 12 0
BBX 10 9 1 0
BITMAP
7F80
F3C0
F3C0
F000
F000
F000
F3C0
F3C0
7F80
ENDCHAR

STARTCHAR D
ENCODING 68
SWIDTH 860 0
DWIDTH 12 0
BBX 10 9 1 0
BITMAP
FF80
F3C0
F3C0
F3C0
F3C0
F3C0
F3C0
F3C0
FF80
ENDCHAR

STARTCHAR E
ENCODING 69
SWIDTH 860 0
DWIDTH 12 0
BBX 9 9 2 0
BITMAP
FF80
F000
F000
F000
FF00
F000
F000
F000
FF80
ENDCHAR

STARTCHAR F
ENCODING 70
SWIDTH 860 0
DWIDTH 12 0
BBX 9 9 2 0
BITMAP
FF80
F000
F000
F000
FF00
F000
F000
F000
F000
ENDCHAR

STARTCHAR G
ENCODING 71
SWIDTH 860 0
DWIDTH 12 0
BBX 10 9 1 0
BITMAP
7F80
F3C0
F3C0
F000
F7C0
F3C0
F3C0
F3C0
7FC0
ENDCHAR

STARTCHAR H
ENCODING 72
SWIDTH 860 0
DWIDTH 12 0
BBX 10 9 1 0
BITMAP
F3C0
F3C0
F3C0
F3C0
FFC0
F3C0
F3C0
F3C0
F3C0
ENDCHAR

STARTCHAR I
ENCODING 73
SWIDTH 860 0
DWIDTH 12 0
BBX 10 9 1 0
BITMAP
FFC0
1E00
1E00
1E00
1E00
1E00
1E00
1E00
FFC0
ENDCHAR

STARTCHAR J
ENCODING 74
SWIDTH 860 0
DWIDTH 12 0
BBX 10 9 1 0
BITMAP
0FC0
03C0
03C0
03C0
03C0
03C0
F3C0
F3C0
7F80
ENDCHAR

STARTCHAR K
ENCODING 75
SWIDTH 860 0
DWIDTH 12 0
BBX 10 9 1 0
BITMAP
F1C0
F3C0
F780
FF00
FE00
FF00
F780
F3C0
F3C0
ENDCHAR

STARTCHAR L
ENCODING 76
SWIDTH 860 0
DWIDTH 12 0
BBX 9 9 2 0
BITMAP
F000
F000
F000
F000
F000
F000
F000
F000
FF80
ENDCHAR

STARTCHAR M
ENCODING 77
SWIDTH 860 0
DWIDTH 12 0
BBX 10 9 1 0
BITMAP
E1C0
F3C0
FFC0
FFC0
FFC0
EDC0
EDC0
E1C0
E1C0
ENDCHAR

STARTCHAR N
ENCODING 78
SWIDTH 860 0
DWIDTH 12 0
BBX 10 9 1 0
BITMAP
C3C0
E3C0
F3C0
FFC0
FFC0
FFC0
F3C0
F1C0
F0C0
ENDCHAR

STARTCHAR O
ENCODING 79
SWIDTH 860 0
DWIDTH 12 0
BBX 10 9 1 0
BITMAP
7F80
F3C0
F3C0
F3C0
F3C0
F3C0
F3C0
F3C0
7F80
ENDCHAR

STARTCHAR P
ENCODING 80
SWIDTH 860 0
DWIDTH 12 0
BBX 10 9 1 0
BITMAP
FF80
F3C0
F3C0
F3C0
F3C0
F3C0
FF80
F000
F000
ENDCHAR

STARTCHAR Q
ENCODING 81
SWIDTH 860 0
DWIDTH 12 0
BBX 10 10 1 -1
BITMAP
7F80
F3C0
F3C0
F3C0
F3C0
F3C0
F3C0
F3C0
7F80
03C0
ENDCHAR

STARTCHAR R
ENCODING 82
SWIDTH 860 0
DWIDTH 12 0
BBX 10 9 1 0
BITMAP
FF80
F3C0
F3C0
F3C0
F3C0
FF80
F3C0
F3C0
F3C0
ENDCHAR

STARTCHAR S
ENCODING 83
SWIDTH 860 0
DWIDTH 12 0
BBX 10 9 1 0
BITMAP
7F80
F3C0
F000
FF80
7FC0
03C0
F3C0
F3C0
7F80
ENDCHAR

STARTCHAR T
ENCODING 84
SWIDTH 860 0
DWIDTH 12 0
BBX 10 9 1 0
BITMAP
FFC0
1E00
1E00
1E00
1E00
1E00
1E00
1E00
1E00
ENDCHAR

STARTCHAR U
ENCODING 85
SWIDTH 860 0
DWIDTH 12 0
BBX 10 9 1 0
BITMAP
F3C0
F3C0
F3C0
F3C0
F3C0
F3C0
F3C0
F3C0
7F80
ENDCHAR

STARTCHAR V
ENCODING 86
SWIDTH 860 0
DWIDTH 12 0
BBX 10 9 1 0
BITMAP
F3C0
F3C0
F3C0
F3C0
F3C0
7380
3F00
1E00
0C00
ENDCHAR

STARTCHAR W
ENCODING 87
SWIDTH 860 0
DWIDTH 12 0
BBX 10 9 1 0
BITMAP
E1C0
E1C0
E1C0
EDC0
EDC0
FFC0
FFC0
F3C0
6180
ENDCHAR

STARTCHAR X
ENCODING 88
SWIDTH 860 0
DWIDTH 12 0
BBX 10 9 1 0
BITMAP
F3C0
F3C0
7380
3F00
1E00
3F00
7380
F3C0
F3C0
ENDCHAR

STARTCHAR Y
ENCODING 89
SWIDTH 860 0
DWIDTH 12 0
BBX 10 9 1 0
BITMAP
F3C0
F3C0
7380
7380
3F00
1E00
1E00
1E00
1E00
ENDCHAR

STARTCHAR Z
ENCODING 90
SWIDTH 860 0
DWIDTH 12 0
BBX 10 9 1 0
BITMAP
FFC0
03C0
0780
0F00
1E00
3C00
7800
F000
FFC0
ENDCHAR

STARTCHAR bracketleft
ENCODING 91
SWIDTH 860 0
DWIDTH 12 0
BBX 8 11 2 -1
BITMAP
FF
F0
F0
F0
F0
F0
F0
F0
F0
F0
FF
ENDCHAR

STARTCHAR backslash
ENCODING 92
SWIDTH 860 0
DWIDTH 12 0
BBX 10 11 1 -1
BITMAP
F000
F000
7800
7800
3C00
1E00
0F00
0780
0780
03C0
03C0
ENDCHAR

STARTCHAR bracketright
ENCODING 93
SWIDTH 860 0
DWIDTH 12 0
BBX 8 11 1 -1
BITMAP
FF
0F
0F
0F
0F
0F
0F
0F
0F
0F
FF
ENDCHAR

STARTCHAR asciicircum
ENCODING 94
SWIDTH 860 0
DWIDTH 12 0
BBX 9 3 1 4
BITMAP
3E00
7700
E380
ENDCHAR

STARTCHAR ldblank
ENCODING 95
SWIDTH 860 0
DWIDTH 12 0
BBX 1 1 0 0
BITMAP
00
ENDCHAR

STARTCHAR diamond
ENCODING 96
SWIDTH 860 0
DWIDTH 12 0
BBX 9 9 2 0
BITMAP
0800
1C00
3E00
7F00
FF80
7F00
3E00
1C00
0800
ENDCHAR

STARTCHAR checkerboard
ENCODING 97
SWIDTH 860 0
DWIDTH 12 0
BBX 12 13 0 -2
BITMAP
3330
CCC0
3330
CCC0
3330
CCC0
3330
CCC0
3330
CCC0
3330
CCC0
CCC0
ENDCHAR

STARTCHAR HT
ENCODING 98
SWIDTH 860 0
DWIDTH 12 0
BBX 10 11 1 -1
BITMAP
F3C0
F3C0
FFC0
F3C0
F3C0
0000
3FC0
3FC0
0F00
0F00
0F00
ENDCHAR

STARTCHAR FF
ENCODING 99
SWIDTH 860 0
DWIDTH 12 0
BBX 10 11 1 -1
BITMAP
FF00
F000
FC00
F000
F000
0000
3FC0
3C00
3F00
3C00
3C00
ENDCHAR

STARTCHAR CR
ENCODING 100
SWIDTH 860 0
DWIDTH 12 0
BBX 10 11 1 -1
BITMAP
3F80
F800
F000
F800
3F80
0000
FF80
FFC0
F3C0
FF80
F3C0
ENDCHAR

STARTCHAR LF
ENCODING 101
SWIDTH 860 0
DWIDTH 12 0
BBX 10 11 1 -1
BITMAP
F000
F000
F000
FF00
FF00
0000
3FC0
3C00
3F00
3C00
3C00
ENDCHAR

STARTCHAR degree
ENCODING 102
SWIDTH 860 0
DWIDTH 12 0
BBX 8 4 2 5
BITMAP
7E
E7
E7
7E
ENDCHAR

STARTCHAR plusminus
ENCODING 103
SWIDTH 860 0
DWIDTH 12 0
BBX 10 8 1 -1
BITMAP
1E00
1E00
FFC0
1E00
1E00
0000
FFC0
FFC0
ENDCHAR

STARTCHAR NL
ENCODING 104
SWIDTH 860 0
DWIDTH 12 0
BBX 10 11 1 -1
BITMAP
E3C0
F3C0
FFC0
FFC0
F3C0
0000
F000
F000
F000
FFC0
FFC0
ENDCHAR

STARTCHAR VT
ENCODING 105
SWIDTH 860 0
DWIDTH 12 0
BBX 10 11 1 -1
BITMAP
F3C0
F3C0
7F80
3F00
0C00
0000
3FC0
3FC0
0F00
0F00
0F00
ENDCHAR

STARTCHAR ldcornsqlr
ENCODING 106
SWIDTH 860 0
DWIDTH 12 0
BBX 8 8 0 3
BITMAP
0F
0F
0F
0F
0F
0F
FF
FF
ENDCHAR

STARTCHAR ldcornsqur
ENCODING 107
SWIDTH 860 0
DWIDTH 12 0
BBX 8 7 0 -2
BITMAP
FF
FF
0F
0F
0F
0F
0F
ENDCHAR

STARTCHAR ldcornsqul
ENCODING 108
SWIDTH 860 0
DWIDTH 12 0
BBX 8 7 4 -2
BITMAP
FF
FF
F0
F0
F0
F0
F0
ENDCHAR

STARTCHAR ldcornsqll
ENCODING 109
SWIDTH 860 0
DWIDTH 12 0
BBX 8 8 4 3
BITMAP
F0
F0
F0
F0
F0
F0
FF
FF
ENDCHAR

STARTCHAR ldcross
ENCODING 110
SWIDTH 860 0
DWIDTH 12 0
BBX 12 13 0 -2
BITMAP
0F00
0F00
0F00
0F00
0F00
0F00
FFF0
FFF0
0F00
0F00
0F00
0F00
0F00
ENDCHAR

STARTCHAR ldscan1
ENCODING 111
SWIDTH 860 0
DWIDTH 12 0
BBX 12 2 0 8
BITMAP
FFF0
FFF0
ENDCHAR

STARTCHAR ldscan3
ENCODING 112
SWIDTH 860 0
DWIDTH 12 0
BBX 12 2 0 5
BITMAP
FFF0
FFF0
ENDCHAR

STARTCHAR ldhorizontal
ENCODING 113
SWIDTH 860 0
DWIDTH 12 0
BBX 12 2 0 3
BITMAP
FFF0
FFF0
ENDCHAR

STARTCHAR ldscan7
ENCODING 114
SWIDTH 860 0
DWIDTH 12 0
BBX 12 2 0 0
BITMAP
FFF0
FFF0
ENDCHAR

STARTCHAR ldscan9
ENCODING 115
SWIDTH 860 0
DWIDTH 12 0
BBX 12 2 0 -2
BITMAP
FFF0
FFF0
ENDCHAR

STARTCHAR ldteelft
ENCODING 116
SWIDTH 860 0
DWIDTH 12 0
BBX 8 13 4 -2
BITMAP
F0
F0
F0
F0
F0
F0
FF
FF
F0
F0
F0
F0
F0
ENDCHAR

STARTCHAR ldteert
ENCODING 117
SWIDTH 860 0
DWIDTH 12 0
BBX 8 13 0 -2
BITMAP
0F
0F
0F
0F
0F
0F
FF
FF
0F
0F
0F
0F
0F
ENDCHAR

STARTCHAR ldteebt
ENCODING 118
SWIDTH 860 0
DWIDTH 12 0
BBX 12 8 0 3
BITMAP
0F00
0F00
0F00
0F00
0F00
0F00
FFF0
FFF0
ENDCHAR

STARTCHAR ldteetp
ENCODING 119
SWIDTH 860 0
DWIDTH 12 0
BBX 12 7 0 -2
BITMAP
FFF0
FFF0
0F00
0F00
0F00
0F00
0F00
ENDCHAR

STARTCHAR ldvertical
ENCODING 120
SWIDTH 860 0
DWIDTH 12 0
BBX 4 13 4 -2
BITMAP
F0
F0
F0
F0
F0
F0
F0
F0
F0
F0
F0
F0
F0
ENDCHAR

STARTCHAR lessequal
ENCODING 121
SWIDTH 860 0
DWIDTH 12 0
BBX 10 9 1 0
BITMAP
01C0
0F80
7E00
F000
7E00
0F80
01C0
FFC0
FFC0
ENDCHAR

STARTCHAR greaterequal
ENCODING 122
SWIDTH 860 0
DWIDTH 12 0
BBX 10 9 1 0
BITMAP
E000
7C00
1F80
03C0
1F80
7C00
E000
FFC0
FFC0
ENDCHAR

STARTCHAR pi
ENCODING 123
SWIDTH 860 0
DWIDTH 12 0
BBX 10 7 1 0
BITMAP
FFC0
3380
3380
3380
3380
3380
E380
ENDCHAR

STARTCHAR notequal
ENCODING 124
SWIDTH 860 0
DWIDTH 12 0
BBX 10 9 1 -1
BITMAP
0180
0300
FFC0
FFC0
0C00
FFC0
FFC0
3000
6000
ENDCHAR

STARTCHAR sterling
ENCODING 125
SWIDTH 860 0
DWIDTH 12 0
BBX 10 9 1 0
BITMAP
1F80
3CC0
3CC0
3C00
FF00
3C00
3C00
7EC0
E780
ENDCHAR

STARTCHAR periodcentered
ENCODING 126
SWIDTH 860 0
DWIDTH 12 0
BBX 4 2 4 3
BITMAP
F0
F0
ENDCHAR

STARTCHAR Error
ENCODING 159
SWIDTH 860 0
DWIDTH 12 0
BBX 12 14 0 -3
BITMAP
1FC0
7FF0
FFF0
F0F0
F000
FC00
7F00
1F80
0F80
0F80
0000
0F80
0F80
0F80
ENDCHAR

STARTCHAR ldradicalbt
ENCODING 161
SWIDTH 860 0
DWIDTH 12 0
BBX 7 11 0 0
BITMAP
0E
0E
0E
0E
0E
0E
EE
FE
3E
1E
0E
ENDCHAR

STARTCHAR ldradicaltp
ENCODING 162
SWIDTH 860 0
DWIDTH 12 0
BBX 8 7 4 -2
BITMAP
FF
FF
E0
E0
E0
E0
E0
ENDCHAR

STARTCHAR ldhorizontal
ENCODING 163
SWIDTH 860 0
DWIDTH 12 0
BBX 12 2 0 3
BITMAP
FFF0
FFF0
ENDCHAR

STARTCHAR ldintegraltp
ENCODING 164
SWIDTH 860 0
DWIDTH 12 0
BBX 7 12 4 -2
BITMAP
3C
7E
E6
E0
E0
E0
E0
E0
E0
E0
E0
E0
ENDCHAR

STARTCHAR ldintegralbt
ENCODING 165
SWIDTH 860 0
DWIDTH 12 0
BBX 7 12 0 -1
BITMAP
0E
0E
0E
0E
0E
0E
0E
0E
0E
CE
FC
78
ENDCHAR

STARTCHAR ldvertical
ENCODING 166
SWIDTH 860 0
DWIDTH 12 0
BBX 3 13 4 -2
BITMAP
E0
E0
E0
E0
E0
E0
E0
E0
E0
E0
E0
E0
E0
ENDCHAR

STARTCHAR ldbracketlfttp
ENCODING 167
SWIDTH 860 0
DWIDTH 12 0
BBX 7 12 4 -2
BITMAP
FE
FE
E0
E0
E0
E0
E0
E0
E0
E0
E0
E0
ENDCHAR

STARTCHAR ldbracketlftbt
ENCODING 168
SWIDTH 860 0
DWIDTH 12 0
BBX 7 12 4 -1
BITMAP
E0
E0
E0
E0
E0
E0
E0
E0
E0
E0
FE
FE
ENDCHAR

STARTCHAR ldbracketrttp
ENCODING 169
SWIDTH 860 0
DWIDTH 12 0
BBX 7 12 0 -2
BITMAP
FE
FE
0E
0E
0E
0E
0E
0E
0E
0E
0E
0E
ENDCHAR

STARTCHAR ldbracketrtbt
ENCODING 170
SWIDTH 860 0
DWIDTH 12 0
BBX 6 12 1 -1
BITMAP
1C
1C
1C
1C
1C
1C
1C
1C
1C
1C
FC
FC
ENDCHAR

STARTCHAR ldbracelfttp
ENCODING 171
SWIDTH 860 0
DWIDTH 12 0
BBX 7 12 4 -2
BITMAP
3E
7E
F0
E0
E0
E0
E0
E0
E0
E0
E0
E0
ENDCHAR

STARTCHAR ldbracelftbt
ENCODING 172
SWIDTH 860 0
DWIDTH 12 0
BBX 7 12 4 -1
BITMAP
E0
E0
E0
E0
E0
E0
E0
E0
E0
F0
7E
3E
ENDCHAR

STARTCHAR ldbracerttp
ENCODING 173
SWIDTH 860 0
DWIDTH 12 0
BBX 7 12 0 -2
BITMAP
F8
FC
1E
0E
0E
0E
0E
0E
0E
0E
0E
0E
ENDCHAR

STARTCHAR ldbracertbt
ENCODING 174
SWIDTH 860 0
DWIDTH 12 0
BBX 7 12 0 -1
BITMAP
0E
0E
0E
0E
0E
0E
0E
0E
0E
1E
FC
F8
ENDCHAR

STARTCHAR ldbracelftmid
ENCODING 175
SWIDTH 860 0
DWIDTH 12 0
BBX 5 14 2 -3
BITMAP
38
38
38
38
38
70
E0
70
38
38
38
38
38
38
ENDCHAR

STARTCHAR ldbracertmid
ENCODING 176
SWIDTH 860 0
DWIDTH 12 0
BBX 6 13 4 -2
BITMAP
E0
E0
E0
E0
70
38
1C
38
70
E0
E0
E0
E0
ENDCHAR

STARTCHAR ldsigmalfttp
ENCODING 177
SWIDTH 860 0
DWIDTH 12 0
BBX 6 7 6 -2
BITMAP
FC
FC
E0
70
38
1C
0C
ENDCHAR

STARTCHAR ldsigmalftbt
ENCODING 178
SWIDTH 860 0
DWIDTH 12 0
BBX 7 8 5 3
BITMAP
06
0E
1C
38
70
E0
FE
FE
ENDCHAR

STARTCHAR ldbackslash
ENCODING 179
SWIDTH 860 0
DWIDTH 12 0
BBX 12 13 0 -2
BITMAP
C000
E000
7000
3800
1C00
0E00
0700
0700
0380
01C0
00E0
0070
0030
ENDCHAR

STARTCHAR ldslash
ENCODING 180
SWIDTH 860 0
DWIDTH 12 0
BBX 12 13 0 -2
BITMAP
0030
0070
00E0
01C0
0380
0300
0600
0E00
1C00
3800
7000
E000
C000
ENDCHAR

STARTCHAR ldsigmarttp
ENCODING 181
SWIDTH 860 0
DWIDTH 12 0
BBX 9 4 0 1
BITMAP
FF80
FF80
0380
0380
ENDCHAR

STARTCHAR ldsigmartbt
ENCODING 182
SWIDTH 860 0
DWIDTH 12 0
BBX 9 4 0 3
BITMAP
0380
0380
FF80
FF80
ENDCHAR

STARTCHAR ldsigmamid
ENCODING 183
SWIDTH 860 0
DWIDTH 12 0
BBX 8 13 0 -2
BITMAP
C0
E0
70
38
1C
0E
07
0E
1C
38
70
E0
C0
ENDCHAR

STARTCHAR lessequal
ENCODING 188
SWIDTH 860 0
DWIDTH 12 0
BBX 10 9 1 0
BITMAP
01C0
0F80
7E00
F000
7E00
0F80
01C0
FFC0
FFC0
ENDCHAR

STARTCHAR notequal
ENCODING 189
SWIDTH 860 0
DWIDTH 12 0
BBX 10 9 1 -1
BITMAP
0180
0300
FFC0
FFC0
0C00
FFC0
FFC0
3000
6000
ENDCHAR

STARTCHAR greaterequal
ENCODING 190
SWIDTH 860 0
DWIDTH 12 0
BBX 10 9 1 0
BITMAP
E000
7C00
1F80
03C0
1F80
7C00
E000
FFC0
FFC0
ENDCHAR

STARTCHAR integral
ENCODING 191
SWIDTH 860 0
DWIDTH 12 0
BBX 9 11 1 -1
BITMAP
0700
0F80
1C80
1C00
1C00
1C00
1C00
1C00
9C00
F800
7000
ENDCHAR

STARTCHAR therefore
ENCODING 192
SWIDTH 860 0
DWIDTH 12 0
BBX 8 6 2 2
BITMAP
18
18
00
00
C3
C3
ENDCHAR

STARTCHAR proportional
ENCODING 193
SWIDTH 860 0
DWIDTH 12 0
BBX 10 6 1 2
BITMAP
79C0
EFC0
C600
C600
EFC0
79C0
ENDCHAR

STARTCHAR infinity
ENCODING 194
SWIDTH 860 0
DWIDTH 12 0
BBX 10 6 1 2
BITMAP
7380
DEC0
CCC0
CCC0
DEC0
7380
ENDCHAR

STARTCHAR divide
ENCODING 195
SWIDTH 860 0
DWIDTH 12 0
BBX 10 8 1 1
BITMAP
0C00
0C00
0000
FFC0
FFC0
0000
0C00
0C00
ENDCHAR

STARTCHAR Delta
ENCODING 196
SWIDTH 860 0
DWIDTH 12 0
BBX 11 9 0 0
BITMAP
0C00
1E00
3F00
3980
70C0
F0C0
E060
FFE0
FFE0
ENDCHAR

STARTCHAR gradient
ENCODING 197
SWIDTH 860 0
DWIDTH 12 0
BBX 11 9 0 0
BITMAP
FFE0
FFE0
E060
F0C0
70C0
3980
3F00
1E00
0C00
ENDCHAR

STARTCHAR Phi
ENCODING 198
SWIDTH 860 0
DWIDTH 12 0
BBX 12 9 0 0
BITMAP
1F80
0600
7FE0
F6F0
F6F0
F6F0
7FE0
0600
1F80
ENDCHAR

STARTCHAR Gamma
ENCODING 199
SWIDTH 860 0
DWIDTH 12 0
BBX 9 9 2 0
BITMAP
FF80
7980
7800
7800
7800
7800
7800
7800
FC00
ENDCHAR

STARTCHAR similar
ENCODING 200
SWIDTH 860 0
DWIDTH 12 0
BBX 10 4 1 2
BITMAP
38C0
7DC0
EF80
C700
ENDCHAR

STARTCHAR approxequal
ENCODING 201
SWIDTH 860 0
DWIDTH 12 0
BBX 10 7 1 1
BITMAP
38C0
7DC0
EF80
C700
0000
FFC0
FFC0
ENDCHAR

STARTCHAR Theta
ENCODING 202
SWIDTH 860 0
DWIDTH 12 0
BBX 12 9 0 0
BITMAP
1F80
39C0
70E0
F0F0
FFF0
F0F0
70E0
39C0
1F80
ENDCHAR

STARTCHAR multiply
ENCODING 203
SWIDTH 860 0
DWIDTH 12 0
BBX 7 7 3 1
BITMAP
C6
EE
7C
38
7C
EE
C6
ENDCHAR

STARTCHAR Lambda
ENCODING 204
SWIDTH 860 0
DWIDTH 12 0
BBX 11 9 1 0
BITMAP
0400
0E00
1F00
1F00
3780
3380
73C0
E1E0
E1E0
ENDCHAR

STARTCHAR arrowdblboth
ENCODING 205
SWIDTH 860 0
DWIDTH 12 0
BBX 12 7 0 1
BITMAP
1080
3FC0
7FE0
E070
7FE0
3FC0
1080
ENDCHAR

STARTCHAR arrowdblright
ENCODING 206
SWIDTH 860 0
DWIDTH 12 0
BBX 9 9 2 0
BITMAP
0800
0C00
FE00
FF00
0380
FF00
FE00
0C00
0800
ENDCHAR

STARTCHAR equivalence
ENCODING 207
SWIDTH 860 0
DWIDTH 12 0
BBX 10 8 1 0
BITMAP
FFC0
FFC0
0000
FFC0
FFC0
0000
FFC0
FFC0
ENDCHAR

STARTCHAR Pi
ENCODING 208
SWIDTH 860 0
DWIDTH 12 0
BBX 10 9 1 0
BITMAP
FFC0
FFC0
FFC0
3300
3300
3300
3300
3300
3300
ENDCHAR

STARTCHAR Psi
ENCODING 209
SWIDTH 860 0
DWIDTH 12 0
BBX 12 9 0 0
BITMAP
CF30
6660
6660
76E0
76E0
76E0
3FC0
0600
1F80
ENDCHAR

STARTCHAR Sigma
ENCODING 211
SWIDTH 860 0
DWIDTH 12 0
BBX 11 9 0 0
BITMAP
FFE0
78E0
3C00
1E00
0F00
1E00
3C00
78E0
FFE0
ENDCHAR

STARTCHAR radical
ENCODING 214
SWIDTH 860 0
DWIDTH 12 0
BBX 12 10 0 0
BITMAP
0070
00E0
00E0
01C0
01C0
3380
FB80
3F00
1F00
0E00
ENDCHAR

STARTCHAR Omega
ENCODING 215
SWIDTH 860 0
DWIDTH 12 0
BBX 10 9 1 0
BITMAP
3F00
7380
F3C0
F3C0
F3C0
7380
3300
F3C0
F3C0
ENDCHAR

STARTCHAR Xi
ENCODING 216
SWIDTH 860 0
DWIDTH 12 0
BBX 10 9 1 0
BITMAP
FFC0
FFC0
FFC0
8040
3F00
8040
FFC0
FFC0
FFC0
ENDCHAR

STARTCHAR Upsilon1
ENCODING 217
SWIDTH 860 0
DWIDTH 12 0
BBX 13 9 0 0
BITMAP
F078
78F0
38E0
1DC0
0F80
0700
0700
0700
0F80
ENDCHAR

STARTCHAR propersubset
ENCODING 218
SWIDTH 860 0
DWIDTH 12 0
BBX 9 7 2 1
BITMAP
7F80
FF80
C000
C000
C000
FF80
7F80
ENDCHAR

STARTCHAR propersuperset
ENCODING 219
SWIDTH 860 0
DWIDTH 12 0
BBX 9 7 2 1
BITMAP
FF00
FF80
0180
0180
0180
FF80
FF00
ENDCHAR

STARTCHAR intersection
ENCODING 220
SWIDTH 860 0
DWIDTH 12 0
BBX 8 7 2 1
BITMAP
7E
FF
C3
C3
C3
C3
C3
ENDCHAR

STARTCHAR union
ENCODING 221
SWIDTH 860 0
DWIDTH 12 0
BBX 8 7 2 1
BITMAP
C3
C3
C3
C3
C3
FF
7E
ENDCHAR

STARTCHAR logicaland
ENCODING 222
SWIDTH 860 0
DWIDTH 12 0
BBX 9 6 2 2
BITMAP
0800
1C00
3E00
7700
E380
C180
ENDCHAR

STARTCHAR logicalor
ENCODING 223
SWIDTH 860 0
DWIDTH 12 0
BBX 9 6 2 1
BITMAP
C180
E380
7700
3E00
1C00
0800
ENDCHAR

STARTCHAR logicalnot
ENCODING 224
SWIDTH 860 0
DWIDTH 12 0
BBX 10 4 1 1
BITMAP
FFC0
FFC0
00C0
00C0
ENDCHAR

STARTCHAR alpha
ENCODING 225
SWIDTH 860 0
DWIDTH 12 0
BBX 10 7 1 0
BITMAP
3DC0
77C0
F780
F700
F780
F7C0
7DC0
ENDCHAR

STARTCHAR beta
ENCODING 226
SWIDTH 860 0
DWIDTH 12 0
BBX 11 10 0 -1
BITMAP
1FC0
39E0
79E0
7BC0
79E0
79E0
79E0
79E0
77C0
E000
ENDCHAR

STARTCHAR chi
ENCODING 227
SWIDTH 860 0
DWIDTH 12 0
BBX 11 9 0 -2
BITMAP
F0E0
79C0
3F80
1F00
0E00
1F00
3F80
73C0
E1E0
ENDCHAR

STARTCHAR delta
ENCODING 228
SWIDTH 860 0
DWIDTH 12 0
BBX 11 10 0 0
BITMAP
1F80
3DC0
1C00
0F00
3FC0
7BE0
F1E0
F1E0
7BC0
3F80
ENDCHAR

STARTCHAR epsilon
ENCODING 229
SWIDTH 860 0
DWIDTH 12 0
BBX 10 7 1 0
BITMAP
7F80
FFC0
F800
7F00
F800
FFC0
7F80
ENDCHAR

STARTCHAR phi
ENCODING 230
SWIDTH 860 0
DWIDTH 12 0
BBX 12 11 0 -2
BITMAP
0080
0080
3FC0
7BE0
F2F0
F6F0
F4F0
7DE0
3F80
1000
1000
ENDCHAR

STARTCHAR gamma
ENCODING 231
SWIDTH 860 0
DWIDTH 12 0
BBX 11 10 0 -2
BITMAP
7000
F8E0
3CE0
1DC0
1F80
0F00
0E00
1C00
3C00
3800
ENDCHAR

STARTCHAR eta
ENCODING 232
SWIDTH 860 0
DWIDTH 12 0
BBX 10 9 0 -2
BITMAP
E780
7FC0
7BC0
7BC0
7BC0
7BC0
7BC0
03C0
03C0
ENDCHAR

STARTCHAR iota
ENCODING 233
SWIDTH 860 0
DWIDTH 12 0
BBX 9 7 1 0
BITMAP
F000
7800
7800
7800
7980
7B00
3E00
ENDCHAR

STARTCHAR theta
ENCODING 234
SWIDTH 860 0
DWIDTH 12 0
BBX 10 9 1 0
BITMAP
3F00
7380
F3C0
F3C0
FFC0
F3C0
F3C0
7380
3F00
ENDCHAR

STARTCHAR kappa
ENCODING 235
SWIDTH 860 0
DWIDTH 12 0
BBX 11 9 1 0
BITMAP
F000
7800
79C0
7B80
7F00
7F00
7F80
7BC0
79E0
ENDCHAR

STARTCHAR lambda
ENCODING 236
SWIDTH 860 0
DWIDTH 12 0
BBX 10 9 1 0
BITMAP
7800
3C00
1C00
1E00
1F00
3F00
7780
63C0
E3C0
ENDCHAR

STARTCHAR nu
ENCODING 238
SWIDTH 860 0
DWIDTH 12 0
BBX 11 8 0 0
BITMAP
F000
7B80
7BC0
79E0
79E0
79E0
7BC0
3F80
ENDCHAR

STARTCHAR partialdiff
ENCODING 239
SWIDTH 860 0
DWIDTH 12 0
BBX 10 9 1 0
BITMAP
7800
1E00
1F00
3F80
77C0
F3C0
F3C0
7380
3F00
ENDCHAR

STARTCHAR pi
ENCODING 240
SWIDTH 860 0
DWIDTH 12 0
BBX 10 7 1 0
BITMAP
FFC0
3380
3380
3380
3380
3380
E380
ENDCHAR

STARTCHAR psi
ENCODING 241
SWIDTH 860 0
DWIDTH 12 0
BBX 12 11 0 -2
BITMAP
0600
0600
E670
76E0
76E0
76E0
76E0
3FC0
0600
0600
0600
ENDCHAR

STARTCHAR rho
ENCODING 242
SWIDTH 860 0
DWIDTH 12 0
BBX 11 10 0 -3
BITMAP
3FC0
7BE0
71E0
F1E0
F1E0
FBC0
FF80
F000
F000
F000
ENDCHAR

STARTCHAR sigma
ENCODING 243
SWIDTH 860 0
DWIDTH 12 0
BBX 11 7 0 0
BITMAP
1FE0
7BC0
F1E0
F1E0
F1E0
7BC0
3F80
ENDCHAR

STARTCHAR tau
ENCODING 244
SWIDTH 860 0
DWIDTH 12 0
BBX 9 8 1 0
BITMAP
0080
7F80
FF00
BC00
3C00
3C00
3F00
1F00
ENDCHAR

STARTCHAR florin
ENCODING 246
SWIDTH 860 0
DWIDTH 12 0
BBX 11 11 0 -2
BITMAP
07C0
0F60
0F00
3FC0
0F00
0F00
0F00
0F00
0F00
DE00
7C00
ENDCHAR

STARTCHAR omega
ENCODING 247
SWIDTH 860 0
DWIDTH 12 0
BBX 12 7 0 0
BITMAP
39C0
70E0
F6F0
F6F0
F6F0
7FE0
3FC0
ENDCHAR

STARTCHAR xi
ENCODING 248
SWIDTH 860 0
DWIDTH 12 0
BBX 10 12 1 -2
BITMAP
C000
7F80
3DC0
3800
1C00
7F00
F800
F000
FE00
7F00
0100
0600
ENDCHAR

STARTCHAR upsilon
ENCODING 249
SWIDTH 860 0
DWIDTH 12 0
BBX 12 7 -1 0
BITMAP
79E0
FCF0
3CF0
3CF0
3CF0
1CE0
0FC0
ENDCHAR

STARTCHAR zeta
ENCODING 250
SWIDTH 860 0
DWIDTH 12 0
BBX 8 11 2 -2
BITMAP
63
3F
1E
78
F0
F0
F8
7E
3F
01
06
ENDCHAR

STARTCHAR arrowleft
ENCODING 251
SWIDTH 860 0
DWIDTH 12 0
BBX 9 6 3 1
BITMAP
2000
6000
FF80
FF80
6000
2000
ENDCHAR

STARTCHAR arrowup
ENCODING 252
SWIDTH 860 0
DWIDTH 12 0
BBX 7 10 3 -1
BITMAP
10
38
7C
FE
38
38
38
38
38
38
ENDCHAR

STARTCHAR arrowright
ENCODING 253
SWIDTH 860 0
DWIDTH 12 0
BBX 9 6 0 1
BITMAP
0200
0300
FF80
FF80
0300
0200
ENDCHAR

STARTCHAR arrowdown
ENCODING 254
SWIDTH 860 0
DWIDTH 12 0
BBX 7 10 3 -1
BITMAP
38
38
38
38
38
38
FE
7C
38
10
ENDCHAR
ENDFONT
